<?xml version="1.0" encoding="UTF-8"?>
<svg width="166" height="30" viewBox="0 0 166 30" xmlns="http://www.w3.org/2000/svg">
  <path d="M3.29,29.41C1.46,29.41 0.34,28.28 0.34,26.34V3.88C0.34,1.95 1.44,0.82 3.29,0.82H11.89C18.37,0.82 22.08,4.23 22.08,9.8C22.08,13.32 20.34,16.32 17.24,17.65L21.3,24.68C21.79,25.52 21.93,26.03 21.93,26.71C21.93,28.28 20.68,29.41 18.96,29.41C17.55,29.41 16.91,28.9 15.95,27.18L11.26,18.69H6.24V26.34C6.24,28.28 5.15,29.41 3.29,29.41ZM6.24,14.41H11.32C14.29,14.41 16.03,12.71 16.03,9.92C16.03,7.18 14.19,5.43 11.26,5.43H6.24V14.41ZM34.91,29.45C28.37,29.45 24.52,25.41 24.52,18.63C24.52,11.89 28.45,7.61 34.64,7.61C40.58,7.61 44.56,11.68 44.56,17.36C44.56,18.94 43.66,19.84 42.08,19.84H30.13V20.09C30.13,23.2 32,25.23 34.89,25.23C36.98,25.23 38.35,24.53 39.89,22.71C40.5,22.09 41.01,21.87 41.75,21.87C42.98,21.87 43.98,22.65 43.98,23.96C43.98,24.41 43.84,24.88 43.59,25.35C42.2,27.93 38.96,29.45 34.91,29.45ZM30.19,16.34H39.07C38.96,13.61 37.2,11.83 34.7,11.83C32.2,11.83 30.38,13.67 30.19,16.34ZM55.99,29.41C53.8,29.41 52.63,28.53 51.87,26.5L46.42,11.89C46.24,11.38 46.11,10.78 46.11,10.19C46.11,8.65 47.34,7.63 48.96,7.63C50.34,7.63 51.26,8.38 51.69,9.92L55.93,23.96H56.05L60.29,9.86C60.68,8.36 61.63,7.63 62.96,7.63C64.54,7.63 65.73,8.73 65.73,10.17C65.73,10.7 65.6,11.29 65.42,11.77L59.97,26.5C59.25,28.51 58.06,29.41 55.99,29.41ZM79.13,29.47C73.31,29.47 69.58,27.14 68.45,24.06C68.25,23.55 68.14,23 68.14,22.48C68.14,20.91 69.21,19.88 70.73,19.88C71.95,19.88 72.75,20.35 73.45,21.6C74.37,23.75 76.57,24.72 79.27,24.72C82.43,24.72 84.58,23.2 84.58,21.13C84.58,19.27 83.25,18.22 79.72,17.5L76.73,16.91C71.11,15.8 68.35,13.1 68.35,8.9C68.35,3.75 72.84,0.33 79.11,0.33C84.27,0.33 88.16,2.5 89.41,6.17C89.54,6.56 89.62,6.97 89.62,7.48C89.62,8.88 88.61,9.84 87.1,9.84C85.77,9.84 84.95,9.31 84.29,8.1C83.35,5.97 81.54,5.09 79.11,5.09C76.2,5.09 74.27,6.46 74.27,8.53C74.27,10.27 75.62,11.34 78.96,12.01L81.93,12.61C87.9,13.8 90.48,16.21 90.48,20.48C90.48,25.99 86.16,29.47 79.13,29.47ZM99.8,29.33C95.81,29.33 92.79,26.75 92.79,22.98C92.79,19.18 95.71,16.97 100.95,16.66L106.22,16.34V14.96C106.22,13 104.86,11.87 102.71,11.87C100.97,11.87 99.91,12.44 98.64,14.08C98.02,14.78 97.3,15.13 96.38,15.13C94.99,15.13 94,14.23 94,12.95C94,12.5 94.09,12.09 94.29,11.66C95.27,9.16 98.63,7.61 102.96,7.61C108.33,7.61 111.83,10.39 111.83,14.61V26.54C111.83,28.43 110.68,29.41 109.06,29.41C107.51,29.41 106.44,28.55 106.32,26.87V25.8H106.2C105.03,28.02 102.41,29.33 99.8,29.33ZM101.67,25.21C104.17,25.21 106.22,23.59 106.22,21.32V19.8L101.81,20.07C99.68,20.23 98.47,21.19 98.47,22.67C98.47,24.23 99.76,25.21 101.67,25.21ZM118.51,29.41C116.85,29.41 115.66,28.39 115.66,26.44V3.38C115.66,1.42 116.85,0.39 118.51,0.39C120.19,0.39 121.36,1.42 121.36,3.38V26.44C121.36,28.39 120.19,29.41 118.51,29.41ZM134.84,29.45C128.29,29.45 124.44,25.41 124.44,18.63C124.44,11.89 128.37,7.61 134.56,7.61C140.5,7.61 144.48,11.68 144.48,17.36C144.48,18.94 143.59,19.84 142,19.84H130.05V20.09C130.05,23.2 131.93,25.23 134.82,25.23C136.91,25.23 138.27,24.53 139.82,22.71C140.42,22.09 140.93,21.87 141.67,21.87C142.9,21.87 143.9,22.65 143.9,23.96C143.9,24.41 143.76,24.88 143.51,25.35C142.12,27.93 138.88,29.45 134.84,29.45ZM130.11,16.34H139C138.88,13.61 137.12,11.83 134.62,11.83C132.12,11.83 130.3,13.67 130.11,16.34ZM155.97,29.45C151.16,29.45 147.96,27.73 146.96,25.27C146.83,24.9 146.75,24.53 146.75,24.21C146.75,22.91 147.73,22.03 149.05,22.03C149.97,22.03 150.75,22.44 151.54,23.32C152.65,24.78 153.94,25.45 156.1,25.45C158.18,25.45 159.52,24.59 159.52,23.2C159.52,22.07 158.8,21.46 156.75,21.01L153.23,20.27C149.13,19.39 147.06,17.3 147.06,14.2C147.06,10.19 150.52,7.61 155.95,7.61C160.29,7.61 163.47,9.59 164.15,11.95C164.23,12.24 164.29,12.52 164.29,12.79C164.29,13.94 163.57,14.74 162.1,14.74C161.36,14.74 160.54,14.47 160.03,13.86C159.04,12.59 157.9,11.62 155.85,11.62C153.92,11.62 152.57,12.54 152.57,13.88C152.57,14.98 153.39,15.7 155.48,16.15L158.94,16.89C163.39,17.83 165.23,19.47 165.23,22.59C165.23,26.75 161.5,29.45 155.97,29.45Z" fill="#ffffff"/>
</svg> 