<?xml version="1.0" encoding="UTF-8"?>
<svg width="100" height="100" viewBox="0 0 100 100" xmlns="http://www.w3.org/2000/svg">
  <path d="M20,0L80,0A20,20 0,0 1,100 20L100,80A20,20 0,0 1,80 100L20,100A20,20 0,0 1,0 80L0,20A20,20 0,0 1,20 0z" fill="#FF5A81"/>
  <path d="M43.57,58.14C45.61,59.37 48,59.87 50.36,59.56L50.95,59.49C63.24,57.87 69.8,73.51 60.04,81.15L54.75,85.28C49.37,89.49 41.6,88.54 37.39,83.16L29.89,73.58C22.72,64.41 33.6,52.13 43.57,58.14V58.14Z" fill="#ffffff" fill-opacity="0.1"/>
  <path d="M43.01,35.46C41.05,36.8 39.6,38.77 38.91,41.05L38.74,41.61C35.12,53.47 18.16,52.96 15.25,40.91L13.68,34.39C12.08,27.74 16.17,21.06 22.81,19.46L34.63,16.61C45.95,13.88 52.62,28.88 43.01,35.46V35.46Z" fill="#ffffff" fill-opacity="0.1"/>
  <path d="M60.15,46.68C60.2,44.3 59.43,41.98 57.98,40.09L57.62,39.62C50.06,29.8 60.31,16.28 71.81,20.9L78.04,23.4C84.38,25.95 87.45,33.16 84.9,39.5L80.37,50.78C76.02,61.58 59.94,58.32 60.15,46.68V46.68Z" fill="#ffffff" fill-opacity="0.1"/>
  <path d="M29.29,65.41C27.46,65.41 26.34,64.28 26.34,62.34V39.88C26.34,37.95 27.44,36.82 29.29,36.82H37.89C44.37,36.82 48.08,40.23 48.08,45.8C48.08,49.32 46.34,52.32 43.24,53.65L47.3,60.68C47.79,61.52 47.93,62.03 47.93,62.71C47.93,64.28 46.68,65.41 44.96,65.41C43.55,65.41 42.91,64.9 41.95,63.18L37.26,54.69H32.24V62.34C32.24,64.28 31.15,65.41 29.29,65.41ZM32.24,50.41H37.32C40.29,50.41 42.03,48.71 42.03,45.92C42.03,43.18 40.19,41.43 37.26,41.43H32.24V50.41ZM62.28,65.47C56.46,65.47 52.73,63.14 51.6,60.06C51.4,59.55 51.29,59 51.29,58.48C51.29,56.91 52.36,55.88 53.88,55.88C55.09,55.88 55.89,56.35 56.6,57.6C57.52,59.75 59.72,60.72 62.42,60.72C65.58,60.72 67.73,59.2 67.73,57.13C67.73,55.27 66.4,54.22 62.87,53.5L59.88,52.91C54.25,51.8 51.5,49.1 51.5,44.9C51.5,39.75 55.99,36.33 62.26,36.33C67.42,36.33 71.3,38.5 72.55,42.17C72.69,42.56 72.77,42.97 72.77,43.48C72.77,44.88 71.75,45.84 70.25,45.84C68.92,45.84 68.1,45.31 67.44,44.1C66.5,41.97 64.68,41.09 62.26,41.09C59.35,41.09 57.42,42.46 57.42,44.53C57.42,46.27 58.77,47.34 62.11,48.01L65.07,48.61C71.05,49.8 73.63,52.21 73.63,56.48C73.63,61.99 69.31,65.47 62.28,65.47Z" fill="#ffffff"/>
  <path d="M31,37C31,40.87 27.87,44 24,44C20.13,44 17,40.87 17,37C17,33.13 20.13,30 24,30C27.87,30 31,33.13 31,37Z" fill="#FF5A81"/>
  <path d="M73,63m-5,0a5,5 0,1 1,10 0a5,5 0,1 1,-10 0" fill="#FF5A81"/>
  <path d="M73,62m-2,0a2,2 0,1 1,4 0a2,2 0,1 1,-4 0" fill="#ffffff"/>
</svg> 